Coordinates
version=1
nRows=17
nColumns=24
inDegrees=yes

Units are S.I. units (second, meters, Newtons, ...)
Angles are in degrees.

endheader
time	pelvis_tilt	pelvis_list	pelvis_rotation	pelvis_tx	pelvis_ty	pelvis_tz	hip_flexion_r	hip_adduction_r	hip_rotation_r	knee_angle_r	ankle_angle_r	subtalar_angle_r	mtp_angle_r	hip_flexion_l	hip_adduction_l	hip_rotation_l	knee_angle_l	ankle_angle_l	subtalar_angle_l	mtp_angle_l	lumbar_extension	lumbar_bending	lumbar_rotation
      5.32000000	     -2.42711218	      2.26024687	      0.77349939	     -0.79066075	      0.67755379	      0.23043635	     27.93213714	      1.19174709	      9.12396515	     -9.40460426	      5.46419406	     -7.88153419	      0.00000000	    -17.03672252	      8.24042828	     15.93496642	    -16.77957498	     12.37022701	     -8.16690734	      0.00000000	    -15.32109214	     -0.60361653	     -7.82074868
      5.33000000	     -2.42983925	      1.55081692	      0.47921791	     -0.77545182	      0.67706179	      0.23137279	     28.60500338	      2.48590746	      9.23939131	    -12.60733717	      4.94175922	     -9.04841300	      0.00000000	    -15.33366429	      7.64813330	     12.21901393	    -21.59972937	     11.74321817	     -4.54869231	      0.00000000	    -15.08342586	      0.46413001	     -7.27054205
      5.34000000	     -2.42968471	      0.75141521	      0.16358874	     -0.76033919	      0.67677797	      0.23225257	     29.24280846	      3.90261392	      9.46986026	    -16.02584907	      4.59705117	    -10.12899856	      0.00000000	    -13.29973944	      6.85887539	      8.94130142	    -26.73937053	     10.00865577	     -2.39090823	      0.00000000	    -14.85550225	      1.64591706	     -6.73695322
      5.35000000	     -2.29553467	     -0.25779111	     -0.13907701	     -0.74514485	      0.67686187	      0.23292704	     29.51821067	      5.48771024	      9.59321809	    -19.21913435	      4.58997067	    -10.89405804	      0.00000000	    -11.20670127	      5.77023543	      6.15475709	    -31.96047593	      7.40583353	     -1.75480912	      0.00000000	    -14.75954632	      3.12391077	     -6.10383977
      5.36000000	     -2.51485764	     -1.09713653	     -0.29645858	     -0.73045503	      0.67678501	      0.23361616	     29.93834866	      6.85591935	      9.92903546	    -21.99470982	      4.68363485	    -11.78704265	      0.00000000	     -8.39108954	      4.73063077	      3.90490214	    -37.34630872	      4.20204862	     -2.24428701	      0.00000000	    -14.31929494	      4.33449068	     -5.80713297
      5.37000000	     -2.54404201	     -2.05418085	     -0.24553924	     -0.71599280	      0.67718677	      0.23394547	     29.79110312	      8.13429070	      9.81462997	    -24.07343070	      5.41394397	    -12.19891903	      0.00000000	     -5.64427915	      3.50777809	      2.20701703	    -42.53803438	      0.78319097	     -4.05837768	      0.00000000	    -14.16954961	      5.70760474	     -5.56734070
      5.38000000	     -2.59561309	     -3.09253242	     -0.10439627	     -0.70182247	      0.67785307	      0.23424551	     29.28358335	      9.36807405	      9.56250979	    -25.37880706	      6.43719800	    -12.40190843	      0.00000000	     -2.76741582	      2.14147100	      0.88893923	    -47.46221707	     -2.35061975	     -6.60383729	      0.00000000	    -14.05175214	      7.14051772	     -5.33759183
      5.39000000	     -2.72919225	     -4.12319130	      0.13192698	     -0.68796996	      0.67877330	      0.23445579	     28.50442943	     10.44938588	      9.14368144	    -25.93455525	      7.71060235	    -12.34038172	      0.00000000	      0.25958831	      0.78879316	     -0.00329456	    -52.00155312	     -4.98958288	     -9.68746399	      0.00000000	    -13.88081939	      8.52975675	     -5.12382813
      5.40000000	     -3.12357502	     -5.04792244	      0.39358064	     -0.67435892	      0.67975028	      0.23457325	     27.71322895	     11.28941858	      8.57425115	    -25.89443044	      9.30327291	    -11.68928198	      0.00000000	      3.58886483	     -0.38017475	     -0.49609471	    -56.08840086	     -6.92392721	    -12.84924522	      0.00000000	    -13.37182199	      9.76019798	     -4.88278969
      5.41000000	     -3.12681656	     -5.93967505	      0.76372418	     -0.66106727	      0.68162424	      0.23466813	     26.18961751	     12.03462870	      7.97139706	    -25.19292737	     10.53711632	    -11.38310838	      0.00000000	      6.45955572	     -1.47581449	     -0.69194590	    -59.57973282	     -8.02638151	    -15.78343389	      0.00000000	    -13.44541430	     10.87439992	     -4.57221808
      5.42000000	     -3.30643806	     -6.57220660	      1.12817420	     -0.64783268	      0.68366233	      0.23461565	     24.63675700	     12.45631404	      7.45156852	    -24.12130094	     11.92607654	    -10.56239430	      0.00000000	      9.44165870	     -2.17434357	     -0.66080359	    -62.44506934	     -8.45139415	    -18.22365266	      0.00000000	    -13.21681696	     11.67081376	     -4.39951774
      5.43000000	     -3.33845782	     -7.04204035	      1.38236862	     -0.63481733	      0.68613512	      0.23470020	     22.79466108	     12.77583696	      7.11517674	    -22.80350984	     12.90744974	     -9.92173553	      0.00000000	     12.16333863	     -2.67980138	     -0.65414352	    -64.70869486	     -8.04660918	    -19.70651629	      0.00000000	    -13.25036781	     12.20134985	     -3.96228989
      5.44000000	     -3.42097425	     -7.26667759	      1.70340561	     -0.62174767	      0.68874329	      0.23458097	     20.86102858	     12.82308691	      6.94083935	    -21.26393895	     13.76751064	     -9.29949382	      0.00000000	     14.81791955	     -2.81780056	     -0.49762274	    -66.34444686	     -7.21970778	    -20.41305802	      0.00000000	    -13.12490984	     12.44054140	     -3.74198217
      5.45000000	     -3.48985346	     -7.28971634	      1.90212789	     -0.60871132	      0.69138144	      0.23455339	     18.84608525	     12.74469145	      7.14574062	    -19.65237347	     14.34749028	     -8.96384778	      0.00000000	     17.29068719	     -2.73769426	     -0.46582368	    -67.39358103	     -5.90396412	    -20.19598459	      0.00000000	    -13.02700470	     12.40022635	     -3.47553461
      5.46000000	     -3.53701325	     -7.19530232	      2.02550854	     -0.59564262	      0.69392761	      0.23459656	     16.75291352	     12.60518751	      7.68862134	    -17.97002477	     14.61198616	     -9.04783437	      0.00000000	     19.58334688	     -2.54355047	     -0.51073249	    -67.92550504	     -4.34671694	    -19.23136153	      0.00000000	    -12.95627397	     12.19260501	     -3.16770988
      5.47000000	     -3.53613723	     -7.04204369	      2.06567936	     -0.58255748	      0.69625525	      0.23469361	     14.57455029	     12.45381445	      8.62826211	    -16.24906681	     14.62022381	     -9.59059908	      0.00000000	     21.65841596	     -2.30725718	     -0.62971201	    -67.98618624	     -2.61847963	    -17.75989420	      0.00000000	    -12.97493163	     11.90513993	     -2.83128663
      5.48000000	     -3.55061853	     -6.75171646	      1.98550531	     -0.56940078	      0.69830037	      0.23487195	     12.43557814	     12.17341421	      9.65790786	    -14.59031055	     14.53702101	    -10.28247809	      0.00000000	     23.54045145	     -1.95417220	     -0.85941463	    -67.54872228	     -0.92716132	    -15.98428712	      0.00000000	    -12.98065374	     11.42663813	     -2.41086929
